# xmcd
#
# Track frame offsets:
#	150
#	8689
#	17701
#	27069
#	36326
#	46321
#	54452
#	64092
#	74622
#	83700
#	92760
#	105632
#	116012
#	128551
#	137012
#	146626
#	158816
#	167780
#	175708
#	188729
#	199062
#	210614
#	222718
#	231786
#	246031
#	259171
#	276128
#	288796
#
# Disc length: 4051
#
# Revision: 5
# Processed by: cddbd v1.5.1PL0 Copyright (c) Steve Scherf et al.
# Submitted via: Feurio! 1.64 - http://www.feurio.com
# Normalized: r4:TSWAP
#
DISCID=910fd11c
DTITLE=Various Artist - A Whistle Stop Tour Of Jasmine Country/ Country Sampler Number 1
DYEAR=28
DGENRE=country
TTITLE0=Pretty Little Pink - Tennessee Ernie Ford - ???
TTITLE1=The Darktown Strutters' Ball - Arthur "guitar Boogie" Smith - ???
TTITLE2=I'm In Love Again - George Morgan - ???
TTITLE3=I'll Baby Sit With You - Ferlin Husky - ???
TTITLE4=Don't Let The Stars Get In Your Eyes - Ray Price - ???
TTITLE5=Headin' For The Open Range - Rex Allen - ???
TTITLE6=Porter Wagoner - Settin' The Woods On Fire
TTITLE7=Cass County Boys - Cucamonga
TTITLE8=Hank Thompson - Rub-a-dub-dub
TTITLE9=Spade Cooley Dance Band - Leather Britches
TTITLE10=Ernest Tubb - You're Breaking My Heart
TTITLE11=Johnny Bond - Oklahoma Hills
TTITLE12=Jim Reeves - Your Old Love Letters
TTITLE13=Leon Mcaulife - Boot Hell Rag
TTITLE14=Speedy West and Jimmy Bryant - Whistle Stop
TTITLE15=Les Paul and Mary Ford - Hummingbird
TTITLE16=Pee Wee King - Oh Monah!
TTITLE17=Tennessee Ernie Ford and Jeannie Gayle - Detour
TTITLE18=Johnny Lee Wills - Rag Mop
TTITLE19=Hank Penny - Hold The Phone
TTITLE20=Arthur "guitar Boogie" Smith - Who Shot Willie
TTITLE21=Hank Snow - Blue Eyes Crying In The Rain
TTITLE22=Red Foley - Milk Bucket Boogie
TTITLE23=Burl Ives - Riders In The Sky (a Cowboy Legend)
TTITLE24=Felix Mendelssohn's Hawaiian Serenaders - The Hula Blues
TTITLE25=Phil Harris - Deck Of Cards
TTITLE26=Jimmy Payne - The Weight Of My Chains
TTITLE27=George Hamilton Iv - Precious Memories
EXTD=YEAR: 2001 ID3G: 2
EXTT0=
EXTT1=
EXTT2=
EXTT3=
EXTT4=
EXTT5=
EXTT6=
EXTT7=
EXTT8=
EXTT9=
EXTT10=
EXTT11=
EXTT12=
EXTT13=
EXTT14=
EXTT15=
EXTT16=
EXTT17=
EXTT18=
EXTT19=
EXTT20=
EXTT21=
EXTT22=
EXTT23=
EXTT24=
EXTT25=
EXTT26=
EXTT27=
PLAYORDER=
